<mxfile host="app.diagrams.net" modified="2024-01-10T17:22:07.611Z" agent="Mozilla/5.0 (Windows NT 10.0; Win64; x64) AppleWebKit/537.36 (KHTML, like Gecko) Chrome/120.0.0.0 Safari/537.36" etag="x8j6klcHeWP9rE8Udy_4" version="22.1.18" type="device">
  <diagram id="YrfzH3xwVrYN7FTBeiER" name="Page-1">
    <mxGraphModel dx="882" dy="578" grid="1" gridSize="10" guides="1" tooltips="1" connect="1" arrows="1" fold="1" page="1" pageScale="1" pageWidth="850" pageHeight="1100" math="0" shadow="0">
      <root>
        <mxCell id="0" />
        <mxCell id="1" parent="0" />
        <mxCell id="KjaMTf5L81UHHnaPAF2d-12" style="edgeStyle=orthogonalEdgeStyle;rounded=0;orthogonalLoop=1;jettySize=auto;html=1;exitX=0.5;exitY=0;exitDx=0;exitDy=0;entryX=0;entryY=0.5;entryDx=0;entryDy=0;" edge="1" parent="1" source="KjaMTf5L81UHHnaPAF2d-1" target="KjaMTf5L81UHHnaPAF2d-3">
          <mxGeometry relative="1" as="geometry" />
        </mxCell>
        <mxCell id="KjaMTf5L81UHHnaPAF2d-13" style="edgeStyle=orthogonalEdgeStyle;rounded=0;orthogonalLoop=1;jettySize=auto;html=1;exitX=0.5;exitY=1;exitDx=0;exitDy=0;entryX=0;entryY=0.5;entryDx=0;entryDy=0;" edge="1" parent="1" source="KjaMTf5L81UHHnaPAF2d-1" target="KjaMTf5L81UHHnaPAF2d-4">
          <mxGeometry relative="1" as="geometry" />
        </mxCell>
        <mxCell id="KjaMTf5L81UHHnaPAF2d-14" style="edgeStyle=orthogonalEdgeStyle;rounded=0;orthogonalLoop=1;jettySize=auto;html=1;exitX=1;exitY=0.5;exitDx=0;exitDy=0;entryX=0;entryY=0.5;entryDx=0;entryDy=0;" edge="1" parent="1" source="KjaMTf5L81UHHnaPAF2d-1" target="KjaMTf5L81UHHnaPAF2d-2">
          <mxGeometry relative="1" as="geometry" />
        </mxCell>
        <mxCell id="KjaMTf5L81UHHnaPAF2d-1" value="Original video" style="rounded=1;whiteSpace=wrap;html=1;" vertex="1" parent="1">
          <mxGeometry x="80" y="240" width="120" height="60" as="geometry" />
        </mxCell>
        <mxCell id="KjaMTf5L81UHHnaPAF2d-15" style="edgeStyle=orthogonalEdgeStyle;rounded=0;orthogonalLoop=1;jettySize=auto;html=1;exitX=1;exitY=0.5;exitDx=0;exitDy=0;" edge="1" parent="1" source="KjaMTf5L81UHHnaPAF2d-2" target="KjaMTf5L81UHHnaPAF2d-10">
          <mxGeometry relative="1" as="geometry" />
        </mxCell>
        <mxCell id="KjaMTf5L81UHHnaPAF2d-2" value="Audio" style="rounded=1;whiteSpace=wrap;html=1;" vertex="1" parent="1">
          <mxGeometry x="280" y="440" width="120" height="60" as="geometry" />
        </mxCell>
        <mxCell id="KjaMTf5L81UHHnaPAF2d-17" style="edgeStyle=orthogonalEdgeStyle;rounded=0;orthogonalLoop=1;jettySize=auto;html=1;exitX=1;exitY=0.5;exitDx=0;exitDy=0;entryX=0;entryY=0.5;entryDx=0;entryDy=0;" edge="1" parent="1" source="KjaMTf5L81UHHnaPAF2d-3" target="KjaMTf5L81UHHnaPAF2d-5">
          <mxGeometry relative="1" as="geometry" />
        </mxCell>
        <mxCell id="KjaMTf5L81UHHnaPAF2d-3" value="Video" style="rounded=1;whiteSpace=wrap;html=1;" vertex="1" parent="1">
          <mxGeometry x="280" y="120" width="120" height="60" as="geometry" />
        </mxCell>
        <mxCell id="KjaMTf5L81UHHnaPAF2d-4" value="Metadata" style="rounded=1;whiteSpace=wrap;html=1;" vertex="1" parent="1">
          <mxGeometry x="280" y="560" width="120" height="60" as="geometry" />
        </mxCell>
        <mxCell id="KjaMTf5L81UHHnaPAF2d-19" style="edgeStyle=orthogonalEdgeStyle;rounded=0;orthogonalLoop=1;jettySize=auto;html=1;exitX=1;exitY=0.5;exitDx=0;exitDy=0;" edge="1" parent="1" source="KjaMTf5L81UHHnaPAF2d-5" target="KjaMTf5L81UHHnaPAF2d-11">
          <mxGeometry relative="1" as="geometry" />
        </mxCell>
        <mxCell id="KjaMTf5L81UHHnaPAF2d-5" value="" style="swimlane;startSize=0;" vertex="1" parent="1">
          <mxGeometry x="480" y="40" width="160" height="360" as="geometry" />
        </mxCell>
        <mxCell id="KjaMTf5L81UHHnaPAF2d-6" value="Inspection" style="rounded=1;whiteSpace=wrap;html=1;" vertex="1" parent="KjaMTf5L81UHHnaPAF2d-5">
          <mxGeometry x="40" y="40" width="80" height="40" as="geometry" />
        </mxCell>
        <mxCell id="KjaMTf5L81UHHnaPAF2d-7" value="Video encoding" style="rounded=1;whiteSpace=wrap;html=1;" vertex="1" parent="KjaMTf5L81UHHnaPAF2d-5">
          <mxGeometry x="40" y="120" width="80" height="40" as="geometry" />
        </mxCell>
        <mxCell id="KjaMTf5L81UHHnaPAF2d-8" value="Thumbnail" style="rounded=1;whiteSpace=wrap;html=1;" vertex="1" parent="KjaMTf5L81UHHnaPAF2d-5">
          <mxGeometry x="40" y="200" width="80" height="40" as="geometry" />
        </mxCell>
        <mxCell id="KjaMTf5L81UHHnaPAF2d-9" value="Watermark" style="rounded=1;whiteSpace=wrap;html=1;" vertex="1" parent="KjaMTf5L81UHHnaPAF2d-5">
          <mxGeometry x="40" y="280" width="80" height="40" as="geometry" />
        </mxCell>
        <mxCell id="KjaMTf5L81UHHnaPAF2d-16" style="edgeStyle=orthogonalEdgeStyle;rounded=0;orthogonalLoop=1;jettySize=auto;html=1;exitX=1;exitY=0.5;exitDx=0;exitDy=0;entryX=0;entryY=0.5;entryDx=0;entryDy=0;" edge="1" parent="1" source="KjaMTf5L81UHHnaPAF2d-10" target="KjaMTf5L81UHHnaPAF2d-11">
          <mxGeometry relative="1" as="geometry" />
        </mxCell>
        <mxCell id="KjaMTf5L81UHHnaPAF2d-10" value="Audio encoding" style="rounded=1;whiteSpace=wrap;html=1;" vertex="1" parent="1">
          <mxGeometry x="480" y="440" width="120" height="60" as="geometry" />
        </mxCell>
        <mxCell id="KjaMTf5L81UHHnaPAF2d-11" value="Assemble" style="rounded=1;whiteSpace=wrap;html=1;" vertex="1" parent="1">
          <mxGeometry x="680" y="440" width="120" height="60" as="geometry" />
        </mxCell>
      </root>
    </mxGraphModel>
  </diagram>
</mxfile>
